<svg width="30" height="30" viewBox="0 0 30 30" fill="none" xmlns="http://www.w3.org/2000/svg">
<path d="M27.7509 6.95061C23.2703 -0.0028439 14.0947 -2.06312 6.99868 2.25059C0.0741359 6.5643 -2.15544 15.9643 2.32515 22.8963L2.6896 23.4543L1.18892 29.0772L6.80574 27.5749L7.36313 27.9397C9.78565 29.2489 12.4226 30 15.038 30C17.8464 30 20.6548 29.2489 23.0774 27.7466C30.0019 23.2397 32.06 14.0328 27.7509 6.90768V6.95061ZM23.8277 21.4155C23.0774 22.5315 22.1341 23.2826 20.8263 23.4758C20.076 23.4758 19.1327 23.8406 15.4025 22.3598C12.2296 20.8575 9.59271 18.4109 7.72758 15.5995C6.61279 14.2904 6.03396 12.5949 5.86246 10.8995C5.86246 9.39719 6.41985 8.08805 7.36313 7.14376C7.72758 6.77892 8.11347 6.58576 8.47792 6.58576H9.4212C9.78565 6.58576 10.1715 6.58576 10.3645 7.33691C10.7289 8.2812 11.6722 10.5346 11.6722 10.7278C11.8652 10.9209 11.7794 12.3588 10.9219 13.1744C10.4502 13.7109 10.3645 13.7324 10.5574 14.1187C11.3078 15.2347 12.251 16.3721 13.1729 17.3164C14.2877 18.2607 15.4239 19.0118 16.7316 19.5698C17.0961 19.763 17.482 19.763 17.6749 19.3767C17.8679 19.0118 18.7897 18.0675 19.1756 17.6812C19.54 17.3164 19.733 17.3164 20.1189 17.4881L23.1202 18.9904C23.4847 19.1835 23.8706 19.3552 24.0635 19.5484C24.2565 20.1064 24.2565 20.8575 23.8706 21.4155H23.8277Z" fill="#39CC06"/>
</svg>
