<svg width="65" height="61" viewBox="0 0 65 61" fill="none" xmlns="http://www.w3.org/2000/svg">
<path d="M32.5002 31.7771C29.9861 31.7771 27.5751 32.7143 25.7974 34.3826C24.0197 36.0509 23.021 38.3136 23.021 40.6729C23.021 43.0323 24.0197 45.2949 25.7974 46.9632C27.5751 48.6315 29.9861 49.5688 32.5002 49.5688C35.0142 49.5688 37.4253 48.6315 39.2029 46.9632C40.9806 45.2949 41.9793 43.0323 41.9793 40.6729C41.9793 38.3136 40.9806 36.0509 39.2029 34.3826C37.4253 32.7143 35.0142 31.7771 32.5002 31.7771ZM28.4377 40.6729C28.4377 39.6618 28.8657 38.6921 29.6275 37.9771C30.3894 37.2621 31.4227 36.8604 32.5002 36.8604C33.5776 36.8604 34.6109 37.2621 35.3728 37.9771C36.1347 38.6921 36.5627 39.6618 36.5627 40.6729C36.5627 41.6841 36.1347 42.6538 35.3728 43.3688C34.6109 44.0838 33.5776 44.4854 32.5002 44.4854C31.4227 44.4854 30.3894 44.0838 29.6275 43.3688C28.8657 42.6538 28.4377 41.6841 28.4377 40.6729Z" fill="#4ECB71"/>
<path d="M47.4662 13.0096L38.8565 1.6814L7.19875 25.4155L5.44375 25.3977V25.4231H4.0625V55.9231H60.9375V25.4231H58.3321L53.1483 11.1923L47.4662 13.0096ZM52.6094 25.4231H25.4502L45.6787 18.952L49.8008 17.7142L52.6094 25.4231ZM42.1146 14.7227L21.2333 21.4022L37.7704 9.00394L42.1146 14.7227ZM9.47917 46.186V35.1551C10.6226 34.7764 11.6611 34.1624 12.5187 33.358C13.3764 32.5536 14.0313 31.5793 14.4354 30.5064H50.5646C50.9684 31.5797 51.6231 32.5546 52.4808 33.3594C53.3384 34.1643 54.3772 34.7787 55.5208 35.1577V46.1885C54.3772 46.5675 53.3384 47.1819 52.4808 47.9868C51.6231 48.7916 50.9684 49.7665 50.5646 50.8398H14.4408C14.0351 49.7664 13.3791 48.7915 12.5207 47.9864C11.6623 47.1813 10.6232 46.5662 9.47917 46.186Z" fill="#4ECB71"/>
</svg>
